# xmcd CD database file
#
# Track frame offsets:
#	150
#	15705
#	30977
#	47447
#	64032
#	77945
#	93570
#	106257
#	123452
#	137930
#	150945
#	163062
#	176105
#
# Disc length: 2498 seconds
#
# Revision: 0
# Processed by: cddbd v1.4PL0 Copyright (c) Steve Scherf et al.
# Submitted via: CDex 1.50Beta5
#
DISCID=a109c00d
DTITLE=Hank Maddox - Troubles and Trials
DYEAR=1900
DGENRE=Country
TTITLE0=Walkin´ talkin´ cryin´ Harley beatin´ broken heart
TTITLE1=Louisville
TTITLE2=Dead man´s curve
TTITLE3=Wildflowers
TTITLE4=Dallas
TTITLE5=Green Pastures
TTITLE6=Cry cry cry
TTITLE7=Seven Spanish Angels
TTITLE8=Take your memory when you go
TTITLE9=The foreigner
TTITLE10=Tight fittin´ jeans
TTITLE11=Dark sside of the moon
TTITLE12=Evangeline
EXTD=
EXTT0=
EXTT1=
EXTT2=
EXTT3=
EXTT4=
EXTT5=
EXTT6=
EXTT7=
EXTT8=
EXTT9=
EXTT10=
EXTT11=
EXTT12=
PLAYORDER=
